grf
version=1
nRows=18
nColumns=28
inDegrees=no
endheader
time	ground_force_1_vx	ground_force_1_vy	ground_force_1_vz	ground_force_1_px	ground_force_1_py	ground_force_1_pz	ground_moment_1_mx	ground_moment_1_my	ground_moment_1_mz	ground_force_2_vx	ground_force_2_vy	ground_force_2_vz	ground_force_2_px	ground_force_2_py	ground_force_2_pz	ground_moment_2_mx	ground_moment_2_my	ground_moment_2_mz	ground_force_3_vx	ground_force_3_vy	ground_force_3_vz	ground_force_3_px	ground_force_3_py	ground_force_3_pz	ground_moment_3_mx	ground_moment_3_my	ground_moment_3_mz
      0.00000000	      0.68707014	      0.28914829	      1.42536410	    309.66174807	  -1233.73671790	      1.98131285	      0.04955224	      0.17918153	     98.18183151	      0.31603886	     -1.09305454	      2.97557121	    218.59136399	  -1622.45235598	      0.23827944	      0.01899777	      0.24569693	   -294.41210517	      1.85623846	     -0.33743055	      4.31202026	    447.04140815	   -272.24817468	      0.35600908	     -0.16024624	      1.17715716	    573.20508198
      0.01000000	      0.44738040	      0.27268887	      1.50564900	    266.55887622	  -1245.25107532	      2.02408047	      0.08153720	      0.29483958	    161.55621493	      0.29584299	     -0.66905724	      2.19229015	     65.12234989	  -1567.63158717	      0.27412622	      0.02091479	      0.27048967	   -324.12058301	      1.66246644	     -0.52796674	      4.60666528	    478.91776605	   -309.02221098	      0.44044114	     -0.12889086	      0.94682286	    461.04606169
      0.02000000	      0.33401873	      0.31519234	      1.26635817	    245.42197038	  -1253.69041111	      2.05015000	      0.08167471	      0.29533681	    161.82866887	      0.35142111	     -0.29281123	      2.74977649	    135.44494174	  -1639.27249298	      0.21887721	      0.00776506	      0.10042499	   -120.33659951	      1.79760226	     -0.70175463	      4.51928759	    473.85594404	   -294.25254540	      0.40869446	     -0.14913299	      1.09552003	    533.45268444
      0.03000000	      0.28539784	      0.32093837	      1.03762092	    189.62534289	  -1314.59768953	      2.18946608	      0.08853289	      0.32013607	    175.41732657	      0.21954998	     -0.06662132	      2.63285879	    154.90932378	  -1621.48187735	      0.23498008	      0.00279942	      0.03620471	    -43.38314529	      1.78996385	     -0.58159157	      4.70677566	    462.53073496	   -320.88304147	      0.46021783	     -0.12178882	      0.89465178	    435.64187069
      0.04000000	      0.41188338	      0.37951364	      1.02589822	    142.40771856	  -1279.79720803	      2.14978598	      0.12442951	      0.44993872	    246.54219123	      0.07337597	      0.22251518	      2.87077697	    213.06133575	  -1635.84209172	      0.22674841	      0.00127069	      0.01643376	    -19.69214031	      1.64388779	     -0.50123424	      4.77893742	    429.42473763	   -316.65141300	      0.44227242	     -0.10259567	      0.75366029	    366.98744965
      0.05000000	      0.48492503	      0.37028773	      1.58364682	    306.20335199	  -1273.01882217	      2.05474801	      0.06359002	      0.22994235	    125.99602571	      0.30976730	      0.27080771	      2.36884784	     60.22953642	  -1538.16034858	      0.29840525	     -0.00550342	     -0.07117543	     85.28762923	      1.62149784	     -0.69605546	      3.84100660	    464.18409723	   -259.89522552	      0.33543300	     -0.13010441	      0.95573751	    465.38696397
      0.06000000	      0.37450486	      0.23213293	      1.06297442	    186.24352644	  -1229.26860951	      2.03544757	      0.07990017	      0.28892005	    158.31262912	      0.10495632	      0.74144227	      3.24579025	    215.27823691	  -1675.40631773	      0.19387377	     -0.01194358	     -0.15446552	    185.09192497	      1.70949125	     -0.42552487	      4.18145650	    477.33975698	   -296.53362752	      0.41435293	     -0.14406650	      1.05830202	    515.32973878
      0.07000000	      0.64753488	      0.30157523	      1.43242964	    276.47302713	  -1300.75315129	      2.12036793	      0.06139471	      0.22200405	    121.64626360	      1.44365773	      4.06457315	    -41.71462976	    509.93904135	  -2065.11721268	     -0.11233944	      0.01188534	      0.15371232	   -184.18939055	      1.49324294	     -0.50249783	      4.13033919	    479.20355043	   -245.46556226	      0.30999853	     -0.15072991	      1.10725091	    539.16492164
      0.08000000	      0.28992224	      0.45904079	      1.69226419	    296.78000229	  -1189.74871864	      1.90753629	      0.09273458	      0.33532944	    183.74247662	    -11.76385624	     39.26131612	   -191.59738109	    500.43701345	  -2004.36024636	     -0.06224882	      0.05960236	      0.77083363	   -923.66944753	      1.67016487	     -0.45326460	      4.45361016	    452.76763735	   -273.02930008	      0.35921406	     -0.14628200	      1.07457689	    523.25462986
      0.09000000	      0.49146096	     -0.06588608	      1.98588190	    311.09002674	  -1254.36761956	      2.01824333	      0.04359872	      0.15765355	     86.38565440	    -50.28710685	     38.98986003	   -370.23235475	    511.70886562	  -1994.76718140	     -0.05351574	      0.10660150	      1.37867059	  -1652.02432304	      1.77894736	     -0.60633373	      4.58289882	    458.72213675	   -307.51774636	      0.43170558	     -0.12849612	      0.94392308	    459.63404068
      0.10000000	      0.36294536	      0.53098807	      0.79322573	    166.44249109	  -1152.40239765	      1.90516054	      0.12402239	      0.44846658	    245.73553870	    -72.09851317	    -43.94878527	   -545.27732920	    513.40250365	  -1977.55775300	     -0.03904460	     -0.01850881	     -0.23937332	    286.83469143	      1.69885318	     -0.37686003	      4.62424346	    496.84964619	   -330.88351287	      0.49034946	     -0.12558372	      0.92252883	    449.21632313
      0.11000000	      0.41524232	     -0.04485292	      0.52894600	     76.96307569	  -1414.68486848	      2.42898536	      0.00183224	      0.00662541	      3.63037038	    -68.91585820	   -134.29340675	   -698.47770512	    509.91605028	  -1959.76502544	     -0.02442093	     -0.14415470	     -1.86434381	   2233.99363659	      1.67578335	     -0.47035040	      4.18758442	    499.01782896	   -258.43630630	      0.34217509	     -0.17381123	      1.27680458	    621.72741084
      0.12000000	      0.34547899	      0.31029328	      0.82537616	    203.85376810	  -1392.64227356	      2.32471613	      0.06543934	      0.23662950	    129.66022305	    -64.17262512	   -169.53972945	   -851.91173766	    505.29008369	  -1946.27367440	     -0.01346044	     -0.19856752	     -2.56806143	   3077.23974887	      1.25887954	     -0.28818020	      4.82750554	    494.32893702	   -328.38113421	      0.48450578	     -0.12890217	      0.94690591	    461.08650380
      0.13000000	      0.71128877	      0.02772262	      2.02554695	    355.18831470	  -1330.57896077	      2.13507244	      0.01603079	      0.05796754	     31.76308792	    -11.82641526	   -209.78639713	  -1002.03357727	    499.04124779	  -1934.50178918	     -0.00403963	      0.02643904	      0.34193446	   -409.73097562	      1.63425726	     -0.41910499	      3.59708639	    463.42580059	   -251.30141973	      0.31757242	     -0.15071360	      1.10713111	    539.10658733
      0.14000000	      0.26178569	      0.07036102	      1.21826683	    307.54919847	  -1472.52619926	      2.41816910	      0.05071092	      0.18337134	    100.47761888	     25.57419468	   -233.09847468	  -1062.65420780	    495.78168167	  -1927.43490653	      0.00164759	      0.19812697	      2.56236380	  -3070.41243910	      1.77896016	     -0.63723876	      3.84057870	    484.80074507	   -217.29804645	      0.25371734	     -0.16937709	      1.24423174	    605.86638442
      0.15000000	      0.76841899	      0.04452219	      1.42485409	    333.91904420	  -1270.56093039	      2.03627429	      0.04798050	      0.17349810	     95.06761486	     24.94813467	   -250.83151220	  -1081.49607678	    494.17925273	  -1920.19066583	      0.00758976	      0.06284760	      0.81280409	   -973.96153984	      1.58085242	     -0.53618713	      4.70501881	    432.90355348	   -302.46062089	      0.41410218	     -0.12327885	      0.90559743	    440.97174735
      0.16000000	      0.55013308	      0.13810251	      1.68167003	    359.89324117	  -1406.49966657	      2.27125292	      0.02304067	      0.08331536	     45.65232948	     24.88104149	   -265.02624937	  -1111.17802296	    493.33579311	  -1914.26686573	      0.01247895	      0.04364053	      0.56440024	   -676.30580401	      1.49566873	     -0.79743273	      3.73711988	    521.89197800	   -237.78029305	      0.30614980	     -0.16320791	      1.19891337	    583.79905351
      0.17000000	      0.64773710	      0.21253076	      1.45149355	    372.69544925	  -1342.51125444	      2.14801301	      0.03528592	      0.12759432	     69.91481952	     51.72444627	   -267.45619118	  -1161.46023458	    491.39204153	  -1910.15306900	      0.01578662	      0.15990398	      2.06802826	  -2478.06329726	      1.64971692	     -0.62640206	      4.35852134	    442.46192015	   -306.45907553	      0.42498572	     -0.10873275	      0.79874284	    388.93995618
